<?xml version="1.0" encoding="utf-8"?>
<!-- Generator: Adobe Illustrator 25.2.1, SVG Export Plug-In . SVG Version: 6.00 Build 0)  -->
<svg version="1.1" id="图层_1" xmlns="http://www.w3.org/2000/svg" xmlns:xlink="http://www.w3.org/1999/xlink" x="0px" y="0px"
	 viewBox="0 0 37.8 43.6" style="enable-background:new 0 0 37.8 43.6;" xml:space="preserve">
<style type="text/css">
	.st0{fill:url(#SVGID_1_);}
	.st1{fill:url(#SVGID_2_);}
	.st2{fill:url(#SVGID_3_);}
	.st3{fill:url(#SVGID_4_);}
	.st4{fill:url(#SVGID_5_);}
	.st5{fill:url(#SVGID_6_);}
	.st6{fill:url(#SVGID_7_);}
	.st7{fill:url(#SVGID_8_);}
	.st8{fill:url(#SVGID_9_);}
	.st9{fill:url(#SVGID_10_);}
</style>
<g>
	
		<linearGradient id="SVGID_1_" gradientUnits="userSpaceOnUse" x1="8.2115" y1="19.6286" x2="8.2115" y2="34.9896" gradientTransform="matrix(1 0 0 -1 0 46)">
		<stop  offset="0" style="stop-color:#E6000F"/>
		<stop  offset="1" style="stop-color:#FF6400"/>
	</linearGradient>
	<path class="st0" d="M16,20.9l-0.9-1.6L0.4,9l1.5,4L16,20.9z"/>
	
		<linearGradient id="SVGID_2_" gradientUnits="userSpaceOnUse" x1="9.8145" y1="19.6286" x2="9.8145" y2="34.9895" gradientTransform="matrix(1 0 0 -1 0 46)">
		<stop  offset="0" style="stop-color:#E6000F"/>
		<stop  offset="1" style="stop-color:#FF6400"/>
	</linearGradient>
	<path class="st1" d="M16.5,21.7L2.3,14.1l1.1,3.1l14,6.1L16.5,21.7z"/>
	
		<linearGradient id="SVGID_3_" gradientUnits="userSpaceOnUse" x1="18.9982" y1="19.6285" x2="18.9982" y2="34.9895" gradientTransform="matrix(1 0 0 -1 0 46)">
		<stop  offset="0" style="stop-color:#E6000F"/>
		<stop  offset="1" style="stop-color:#FF6400"/>
	</linearGradient>
	<path class="st2" d="M19,27.2l0.7,7.9L19,35.7L18.2,35L19,27.2L19,27.2z"/>
	
		<linearGradient id="SVGID_4_" gradientUnits="userSpaceOnUse" x1="11.2505" y1="19.6286" x2="11.2505" y2="34.9896" gradientTransform="matrix(1 0 0 -1 0 46)">
		<stop  offset="0" style="stop-color:#E6000F"/>
		<stop  offset="1" style="stop-color:#FF6400"/>
	</linearGradient>
	<path class="st3" d="M18.7,25.7l-1.2,8.7l-1.1-0.9l1.8-7.8L4.5,20.3l-0.7-2.1l14,5.9L18.7,25.7z"/>
	
		<linearGradient id="SVGID_5_" gradientUnits="userSpaceOnUse" x1="29.7847" y1="19.6286" x2="29.7847" y2="34.9896" gradientTransform="matrix(1 0 0 -1 0 46)">
		<stop  offset="0" style="stop-color:#E6000F"/>
		<stop  offset="1" style="stop-color:#FF6400"/>
	</linearGradient>
	<path class="st4" d="M22,20.9l0.9-1.6L37.6,9l-1.5,4L22,20.9z"/>
	
		<linearGradient id="SVGID_6_" gradientUnits="userSpaceOnUse" x1="28.1818" y1="19.6286" x2="28.1818" y2="34.9895" gradientTransform="matrix(1 0 0 -1 0 46)">
		<stop  offset="0" style="stop-color:#E6000F"/>
		<stop  offset="1" style="stop-color:#FF6400"/>
	</linearGradient>
	<path class="st5" d="M21.5,21.7l14.2-7.5l-1.1,3.1l-14,6.1L21.5,21.7z"/>
	
		<linearGradient id="SVGID_7_" gradientUnits="userSpaceOnUse" x1="18.9982" y1="19.6285" x2="18.9982" y2="34.9895" gradientTransform="matrix(1 0 0 -1 0 46)">
		<stop  offset="0" style="stop-color:#E6000F"/>
		<stop  offset="1" style="stop-color:#FF6400"/>
	</linearGradient>
	<path class="st6" d="M19,27.2L18.2,35l0.8,0.7l0.7-0.7L19,27.2L19,27.2z"/>
	
		<linearGradient id="SVGID_8_" gradientUnits="userSpaceOnUse" x1="26.7459" y1="19.6286" x2="26.7459" y2="34.9896" gradientTransform="matrix(1 0 0 -1 0 46)">
		<stop  offset="0" style="stop-color:#E6000F"/>
		<stop  offset="1" style="stop-color:#FF6400"/>
	</linearGradient>
	<path class="st7" d="M19.3,25.7l1.2,8.7l1.1-0.9l-1.8-7.8l13.7-5.3l0.7-2.1l-14,5.9L19.3,25.7z"/>
	
		<linearGradient id="SVGID_9_" gradientUnits="userSpaceOnUse" x1="18.9982" y1="19.6286" x2="18.9982" y2="34.9895" gradientTransform="matrix(1 0 0 -1 0 46)">
		<stop  offset="0" style="stop-color:#E6000F"/>
		<stop  offset="1" style="stop-color:#FF6400"/>
	</linearGradient>
	<path class="st8" d="M19.8,20.6L19,22.5l-0.9-1.9l-0.7,0.9L19,25l1.5-3.5L19.8,20.6z"/>
	
		<linearGradient id="SVGID_10_" gradientUnits="userSpaceOnUse" x1="18.9982" y1="19.6286" x2="18.9982" y2="34.9896" gradientTransform="matrix(1 0 0 -1 0 46)">
		<stop  offset="0" style="stop-color:#E6000F"/>
		<stop  offset="1" style="stop-color:#FF6400"/>
	</linearGradient>
	<path class="st9" d="M19.8,19.6L19,21l-0.8-1.4l0.8-0.7L19.8,19.6z"/>
</g>
</svg>
