<?xml version="1.0" encoding="utf-8"?>
<!-- Generator: Adobe Illustrator 25.2.1, SVG Export Plug-In . SVG Version: 6.00 Build 0)  -->
<svg version="1.1" id="Layer_1" xmlns="http://www.w3.org/2000/svg" xmlns:xlink="http://www.w3.org/1999/xlink" x="0px" y="0px"
	 viewBox="0 0 1000 200.1" style="enable-background:new 0 0 1000 200.1;" xml:space="preserve">
<style type="text/css">
	.st0{fill:url(#SVGID_1_);}
	.st1{fill:url(#SVGID_2_);}
	.st2{fill:url(#SVGID_3_);}
	.st3{fill:url(#SVGID_4_);}
	.st4{fill:url(#SVGID_5_);}
	.st5{fill:url(#SVGID_6_);}
	.st6{fill:url(#SVGID_7_);}
	.st7{fill:url(#SVGID_8_);}
	.st8{fill:url(#SVGID_9_);}
	.st9{fill:url(#SVGID_10_);}
	.st10{fill:url(#SVGID_11_);}
	.st11{fill:url(#SVGID_12_);}
	.st12{fill:url(#SVGID_13_);}
	.st13{fill:url(#SVGID_14_);}
	.st14{fill:url(#SVGID_15_);}
	.st15{fill:url(#SVGID_16_);}
	.st16{fill:url(#SVGID_17_);}
</style>
<linearGradient id="SVGID_1_" gradientUnits="userSpaceOnUse" x1="311.9081" y1="99.299" x2="358.1245" y2="99.299">
	<stop  offset="0" style="stop-color:#E6000F"/>
	<stop  offset="1" style="stop-color:#FF6400"/>
</linearGradient>
<path class="st0" d="M335,94.6h-23.1V137h13.2v-29.2h9.9c12.7,0,23.1-10.4,23.1-23.1S347.7,61.6,335,61.6h-23.1v12.7h22.6
	c2.8,0,5.2,0.9,7.1,2.8c1.9,1.9,2.8,4.2,2.8,7.1C344.4,89.9,340.2,94.6,335,94.6z"/>
<linearGradient id="SVGID_2_" gradientUnits="userSpaceOnUse" x1="405.7558" y1="99.0632" x2="451.5006" y2="99.0632">
	<stop  offset="0" style="stop-color:#E6000F"/>
	<stop  offset="1" style="stop-color:#FF6400"/>
</linearGradient>
<path class="st1" d="M405.8,61.6v75H419v-30.7h19.3v30.7h13.2v-75h-13.2v31.1H419V61.6H405.8z"/>
<linearGradient id="SVGID_3_" gradientUnits="userSpaceOnUse" x1="499.6035" y1="99.299" x2="545.8199" y2="99.299">
	<stop  offset="0" style="stop-color:#E6000F"/>
	<stop  offset="1" style="stop-color:#FF6400"/>
</linearGradient>
<path class="st2" d="M545.8,113.9V84.7c0-12.7-10.4-23.1-23.1-23.1s-23.1,10.4-23.1,23.1v29.2c0,12.7,10.4,23.1,23.1,23.1
	S545.8,126.7,545.8,113.9z M512.8,113.9V84.7c0-5.2,4.2-9.9,9.9-9.9c5.2,0,9.9,4.2,9.9,9.9v29.2c0,5.2-4.2,9.9-9.9,9.9
	C517.1,123.8,512.8,119.6,512.8,113.9z"/>
<linearGradient id="SVGID_4_" gradientUnits="userSpaceOnUse" x1="873.1056" y1="99.0632" x2="921.68" y2="99.0632">
	<stop  offset="0" style="stop-color:#E6000F"/>
	<stop  offset="1" style="stop-color:#FF6400"/>
</linearGradient>
<path class="st3" d="M887.7,136.6l9.9-21.2l9.4,21.2h14.6l-17-37.3l17-37.7h-14.6l-9.4,21.7l-9.9-21.7h-14.6l17,37.7l-17,37.3H887.7
	z"/>
<linearGradient id="SVGID_5_" gradientUnits="userSpaceOnUse" x1="797.1785" y1="99.0632" x2="809.9117" y2="99.0632">
	<stop  offset="0" style="stop-color:#E6000F"/>
	<stop  offset="1" style="stop-color:#FF6400"/>
</linearGradient>
<path class="st4" d="M809.9,61.6h-12.7v75h12.7V61.6z"/>
<linearGradient id="SVGID_6_" gradientUnits="userSpaceOnUse" x1="596.75" y1="99.0632" x2="635.8925" y2="99.0632">
	<stop  offset="0" style="stop-color:#E6000F"/>
	<stop  offset="1" style="stop-color:#FF6400"/>
</linearGradient>
<path class="st5" d="M635.9,74.8V61.6h-39.1v75h39.1v-12.7H610v-17.9h22.6V92.7H610V74.8H635.9z"/>
<linearGradient id="SVGID_7_" gradientUnits="userSpaceOnUse" x1="686.825" y1="99.0632" x2="732.5698" y2="99.0632">
	<stop  offset="0" style="stop-color:#E6000F"/>
	<stop  offset="1" style="stop-color:#FF6400"/>
</linearGradient>
<path class="st6" d="M719.8,136.6h12.7v-75h-12.7v42.9l-19.3-42.9h-13.7v75h13.7V93.6L719.8,136.6z"/>
<linearGradient id="SVGID_8_" gradientUnits="userSpaceOnUse" x1="60.5471" y1="611.3553" x2="60.5471" y2="719.8171" gradientTransform="matrix(1 0 0 -1 0 740)">
	<stop  offset="0" style="stop-color:#E6000F"/>
	<stop  offset="1" style="stop-color:#FF6400"/>
</linearGradient>
<path class="st7" d="M115.7,89.9l-6.1-11.3L5.4,5.9l10.4,28.3L115.7,89.9z"/>
<linearGradient id="SVGID_9_" gradientUnits="userSpaceOnUse" x1="71.8653" y1="611.3553" x2="71.8653" y2="719.8165" gradientTransform="matrix(1 0 0 -1 0 740)">
	<stop  offset="0" style="stop-color:#E6000F"/>
	<stop  offset="1" style="stop-color:#FF6400"/>
</linearGradient>
<path class="st8" d="M119,95.5L18.6,42.2l8,21.7l98.6,42.9L119,95.5z"/>
<linearGradient id="SVGID_10_" gradientUnits="userSpaceOnUse" x1="136.71" y1="611.3547" x2="136.71" y2="719.8165" gradientTransform="matrix(1 0 0 -1 0 740)">
	<stop  offset="0" style="stop-color:#E6000F"/>
	<stop  offset="1" style="stop-color:#FF6400"/>
</linearGradient>
<path class="st9" d="M136.9,134.2l5.2,55.6l-5.2,4.7l-5.7-4.7l5.2-55.6H136.9z"/>
<linearGradient id="SVGID_11_" gradientUnits="userSpaceOnUse" x1="82.0048" y1="611.3553" x2="82.0048" y2="719.8171" gradientTransform="matrix(1 0 0 -1 0 740)">
	<stop  offset="0" style="stop-color:#E6000F"/>
	<stop  offset="1" style="stop-color:#FF6400"/>
</linearGradient>
<path class="st10" d="M134.6,123.8l-8.5,61.3l-7.5-6.6l12.7-55.2L34.6,85.6L29.4,71l99,41.5L134.6,123.8z"/>
<linearGradient id="SVGID_12_" gradientUnits="userSpaceOnUse" x1="212.8722" y1="611.3553" x2="212.8722" y2="719.8171" gradientTransform="matrix(1 0 0 -1 0 740)">
	<stop  offset="0" style="stop-color:#E6000F"/>
	<stop  offset="1" style="stop-color:#FF6400"/>
</linearGradient>
<path class="st11" d="M157.7,89.9l6.1-11.3L268,5.9l-10.4,28.3L157.7,89.9z"/>
<linearGradient id="SVGID_13_" gradientUnits="userSpaceOnUse" x1="201.5545" y1="611.3553" x2="201.5545" y2="719.8165" gradientTransform="matrix(1 0 0 -1 0 740)">
	<stop  offset="0" style="stop-color:#E6000F"/>
	<stop  offset="1" style="stop-color:#FF6400"/>
</linearGradient>
<path class="st12" d="M154.4,95.5l100.5-53.3l-8,21.7l-98.6,42.9L154.4,95.5z"/>
<linearGradient id="SVGID_14_" gradientUnits="userSpaceOnUse" x1="136.71" y1="611.3547" x2="136.71" y2="719.8165" gradientTransform="matrix(1 0 0 -1 0 740)">
	<stop  offset="0" style="stop-color:#E6000F"/>
	<stop  offset="1" style="stop-color:#FF6400"/>
</linearGradient>
<path class="st13" d="M136.5,134.2l-5.2,55.6l5.7,4.7l5.2-4.7l-5.2-55.6H136.5z"/>
<linearGradient id="SVGID_15_" gradientUnits="userSpaceOnUse" x1="191.4152" y1="611.3553" x2="191.4152" y2="719.8171" gradientTransform="matrix(1 0 0 -1 0 740)">
	<stop  offset="0" style="stop-color:#E6000F"/>
	<stop  offset="1" style="stop-color:#FF6400"/>
</linearGradient>
<path class="st14" d="M138.8,123.8l8.5,61.3l7.5-6.6l-12.7-55.2l96.7-37.7L244,71l-99,41.5L138.8,123.8z"/>
<linearGradient id="SVGID_16_" gradientUnits="userSpaceOnUse" x1="136.71" y1="611.3553" x2="136.71" y2="719.8167" gradientTransform="matrix(1 0 0 -1 0 740)">
	<stop  offset="0" style="stop-color:#E6000F"/>
	<stop  offset="1" style="stop-color:#FF6400"/>
</linearGradient>
<path class="st15" d="M142.6,88l-5.7,13.2L130.8,88l-5.2,6.1l11.3,24.5l10.8-24.5L142.6,88z"/>
<linearGradient id="SVGID_17_" gradientUnits="userSpaceOnUse" x1="136.71" y1="611.3553" x2="136.71" y2="719.8171" gradientTransform="matrix(1 0 0 -1 0 740)">
	<stop  offset="0" style="stop-color:#E6000F"/>
	<stop  offset="1" style="stop-color:#FF6400"/>
</linearGradient>
<path class="st16" d="M142.1,80.9l-5.2,9.9l-5.7-9.9l5.7-5.2L142.1,80.9z"/>
</svg>
